<svg width="21" height="20" viewBox="0 0 21 20" fill="none" xmlns="http://www.w3.org/2000/svg">
<path d="M0.5 17.5V18.5747L1.32207 17.8825L4.98248 14.8H18.1C19.3372 14.8 20.5 13.9332 20.5 12.7V3.1C20.5 1.86679 19.3372 1 18.1 1H2.9C1.66282 1 0.5 1.86679 0.5 3.1V17.5ZM3.68943 12.3175L3.4 12.5613V3.6H17.6V12.2H4.0115H3.82902L3.68943 12.3175ZM5.75 6.6H5.25V7.1V8.7V9.2H5.75H7.65H8.15V8.7V7.1V6.6H7.65H5.75ZM13.35 6.6H12.85V7.1V8.7V9.2H13.35H15.25H15.75V8.7V7.1V6.6H15.25H13.35ZM9.55 6.6H9.05V7.1V8.7V9.2H9.55H11.45H11.95V8.7V7.1V6.6H11.45H9.55Z" fill="#D6DAFF" stroke="black"/>
</svg>
