<svg width="30" height="24" viewBox="0 0 30 24" fill="none" xmlns="http://www.w3.org/2000/svg">
<path d="M21.7057 21.35C21.7057 20.2213 20.8828 19.2 19.7443 19.2H10.9757C9.83711 19.2 9.01426 20.2213 9.01426 21.35C9.01426 22.4787 9.83711 23.5 10.9757 23.5H19.7443C20.8828 23.5 21.7057 22.4787 21.7057 21.35ZM25.6028 12C25.6028 10.8714 24.78 9.85 23.6414 9.85H7.07854C5.93997 9.85 5.11711 10.8714 5.11711 12C5.11711 13.1287 5.93997 14.15 7.07854 14.15H23.6414C24.78 14.15 25.6028 13.1287 25.6028 12ZM29.5 2.65C29.5 1.52135 28.6771 0.5 27.5385 0.5H3.1814C2.04282 0.5 1.21997 1.52135 1.21997 2.65C1.21997 3.77865 2.04282 4.8 3.1814 4.8H27.5385C28.6771 4.8 29.5 3.77865 29.5 2.65Z" fill="#D6DAFF" stroke="black"/>
</svg>
