<svg width="29" height="30" viewBox="0 0 29 30" fill="none" xmlns="http://www.w3.org/2000/svg">
<path d="M15 5.39644C15.574 5.44485 16.1369 5.57127 16.7019 5.73495C16.5527 5.87643 16.4094 6.01902 16.2886 6.15659C16.0049 6.47948 15.676 6.9537 15.8007 7.51472C15.8514 7.74292 15.9931 7.89875 16.1231 7.99858C16.2499 8.09587 16.3961 8.16418 16.5252 8.21537C16.6763 8.27533 16.8786 8.33768 17.0643 8.39491C17.1665 8.42642 17.2637 8.45637 17.3446 8.48352C17.6177 8.57523 17.823 8.66728 17.9568 8.77633C18.0689 8.86765 18.1175 8.95689 18.1175 9.09375C18.1175 9.18117 18.0868 9.26954 18.0003 9.39443C17.9556 9.45886 17.9026 9.52401 17.8371 9.60228C17.8294 9.61146 17.8215 9.62094 17.8133 9.63068C17.7569 9.69796 17.69 9.77767 17.6298 9.85861C17.4926 10.0432 17.3255 10.3164 17.3346 10.6727C17.3437 11.031 17.5264 11.3559 17.8136 11.6628L17.8193 11.6689L17.8252 11.6748C17.8987 11.7483 17.9216 11.8096 17.9287 11.8669C17.9371 11.9348 17.9271 12.0359 17.8712 12.1829C17.7542 12.4906 17.4932 12.8602 17.1423 13.3004C17.0503 13.4158 16.9518 13.5364 16.8508 13.6601C16.5898 13.9797 16.3119 14.3201 16.0838 14.6469C15.773 15.0925 15.4753 15.6182 15.4517 16.1595L15.4516 16.1632C15.4229 16.9562 15.6099 17.6186 15.9742 18.1553C16.3353 18.6874 16.8466 19.0609 17.412 19.3224C18.5272 19.8382 19.9345 19.955 21.115 19.955C21.7582 19.955 22.0432 20.1096 22.1663 20.2387C22.2672 20.3445 22.3291 20.5074 22.3168 20.7601C20.5813 23.1583 17.6704 24.6588 14.4663 24.6588C13.4288 24.6588 12.454 24.4469 11.5152 24.1165C11.5896 23.7577 11.582 23.3779 11.5235 23.0064C11.4347 22.443 11.2229 21.8567 10.9422 21.3041C10.3971 20.2315 9.54455 19.1954 8.66428 18.6513C8.1393 18.1628 7.38766 18.0436 6.78667 17.9791C6.62199 17.9614 6.47954 17.9489 6.3434 17.937C6.18183 17.9228 6.02913 17.9094 5.85869 17.8891C5.67423 17.867 5.51403 17.8408 5.37664 17.8067C5.12619 17.0487 4.90921 16.334 4.85252 15.569C4.8606 15.5681 4.8701 15.5675 4.88125 15.5675C4.87923 15.5675 4.8982 15.5674 4.9445 15.586C4.99039 15.6046 5.0491 15.6358 5.12195 15.6837C5.27156 15.782 5.43225 15.9169 5.61698 16.0734L5.63498 16.0886C5.80189 16.2301 5.99672 16.3952 6.18332 16.5142C6.34533 16.6175 6.65483 16.791 6.99776 16.6991C7.09455 16.6747 7.19217 16.6249 7.27398 16.5424C7.35813 16.4574 7.40304 16.3607 7.42621 16.2784C7.4683 16.1289 7.45069 15.985 7.43439 15.8953C7.39968 15.7041 7.31376 15.4775 7.22195 15.2598C7.12621 15.0327 7.00479 14.7716 6.87915 14.5014L6.87674 14.4963C6.75027 14.2243 6.61752 13.9389 6.49153 13.649C6.23374 13.0559 6.0246 12.4887 5.9575 12.0363C5.88836 11.5702 5.99243 11.4355 6.07119 11.3861C6.08469 11.3855 6.13629 11.3859 6.25482 11.4275C6.33747 11.4566 6.42683 11.4962 6.5299 11.5441C6.54616 11.5517 6.56313 11.5596 6.58064 11.5678C6.66483 11.6071 6.76134 11.6523 6.85042 11.6881C6.95195 11.7289 7.10066 11.7823 7.25914 11.7893C7.44194 11.7975 7.6873 11.742 7.85208 11.5104C7.98582 11.3224 8.0025 11.0999 7.99779 10.9352C7.99264 10.755 7.95734 10.5414 7.89909 10.295L7.4125 10.41M15 5.39644L10.9878 24.1649C11.4502 22.6215 9.85854 19.9442 8.3575 19.05C7.8834 18.5759 7.08196 18.5047 6.31459 18.4365C5.82555 18.393 5.35033 18.3508 4.9825 18.2062C4.67875 17.295 4.375 16.3838 4.34125 15.3713C4.4425 15.2025 4.61125 15.0675 4.88125 15.0675C5.20306 15.0675 5.58436 15.3905 5.94412 15.6952C6.30123 15.9977 6.63712 16.2823 6.8725 16.215C7.10101 16.1642 6.80424 15.5261 6.42226 14.7047C5.78875 13.3425 4.9209 11.4764 5.82625 10.95C6.09474 10.7889 6.47002 10.9642 6.79705 11.117C7.2922 11.3483 7.67673 11.5279 7.4125 10.41M15 5.39644V5.40875H14.5C12.9466 5.40875 11.4835 5.81856 10.1732 6.49845M15 5.39644L10.1732 6.49845M7.4125 10.41C7.13906 9.24789 7.78869 9.22423 8.55121 9.19645C8.91809 9.18309 9.3111 9.16878 9.64 9.02625M7.4125 10.41L7.89921 10.2955C7.8074 9.9053 7.86861 9.79862 7.87059 9.79547C7.87119 9.79451 7.87154 9.794 7.87313 9.79263C7.87514 9.79089 7.8814 9.78591 7.89519 9.77904C7.92566 9.76388 7.98006 9.74569 8.07267 9.73107C8.21074 9.70927 8.35414 9.70413 8.53342 9.69771C8.62365 9.69448 8.72297 9.69093 8.83528 9.68475C9.13278 9.66841 9.49825 9.63212 9.83681 9.48589M9.64 9.02625L9.83482 9.48673C9.83548 9.48645 9.83615 9.48617 9.83681 9.48589M9.64 9.02625C10.5175 8.655 11.1588 7.6425 10.0788 7.035L9.64 9.02625ZM9.83681 9.48589C10.3616 9.26334 10.8685 8.83187 11.0639 8.28839C11.1666 8.00292 11.1844 7.67666 11.0503 7.35689C10.9182 7.04172 10.6625 6.78969 10.3239 6.59921L10.3133 6.59324L10.3024 6.58779C10.2748 6.57398 10.2332 6.54693 10.1732 6.49845M9.83681 9.48589L10.1732 6.49845M14.4663 25.1588C13.3628 25.1588 12.3343 24.9339 11.3593 24.5917L15.9512 16.1812C15.85 18.9825 18.7863 19.455 21.115 19.455C22.5325 19.455 22.9037 20.13 22.8025 20.94C20.98 23.5388 17.875 25.1588 14.4663 25.1588ZM14.5 1C6.76511 1 0.5 7.26511 0.5 15C0.5 22.7349 6.76511 29 14.5 29C22.2349 29 28.5 22.7349 28.5 15C28.5 7.26511 22.2349 1 14.5 1ZM20.4762 9.80113C20.9531 9.54787 21.5655 9.3085 22.1152 9.13188C22.5471 9.70157 22.9067 10.3154 23.2256 10.9775C23.208 10.9942 23.1879 11.0127 23.1648 11.0333C23.1407 11.0549 23.1135 11.0788 23.0836 11.1051C22.9784 11.1976 22.8397 11.3194 22.6852 11.4739C22.6306 11.5286 22.5888 11.5629 22.5589 11.5843C22.5486 11.5696 22.5364 11.5512 22.5225 11.5281C22.4605 11.4248 22.4081 11.3057 22.3437 11.1591C22.3237 11.1138 22.3027 11.0659 22.2798 11.015C22.2361 10.9178 22.185 10.8091 22.1266 10.7093C22.0723 10.6166 21.9942 10.5004 21.8836 10.4054C21.6445 10.191 21.3199 10.1368 21.097 10.1153C20.8779 10.0942 20.6332 10.0968 20.4238 10.0991C20.3976 10.0994 20.372 10.0996 20.347 10.0999C20.213 10.101 20.0976 10.1007 19.9994 10.0964C20.1172 10.007 20.277 9.90692 20.4762 9.80113ZM22.4998 11.618C22.4998 11.6179 22.5009 11.6175 22.5029 11.6171C22.5008 11.6178 22.4998 11.6181 22.4998 11.618ZM19.8004 10.2859C19.7981 10.2922 19.7959 10.2955 19.7955 10.2956C19.795 10.2957 19.7962 10.2926 19.8004 10.2859ZM19.7051 10.0538C19.7054 10.0537 19.7081 10.0547 19.7124 10.0572C19.7071 10.0552 19.7049 10.0539 19.7051 10.0538Z" fill="#EEEEEE" stroke="black"/>
</svg>
