<svg width="54" height="29" viewBox="0 0 54 29" fill="none" xmlns="http://www.w3.org/2000/svg">
<path d="M36.3897 17.6181L36.3865 17.6167C33.8 16.4892 30.612 15.625 27 15.625C23.3888 15.625 20.2004 16.4889 17.612 17.639C15.0829 18.7405 13.5 21.2651 13.5 24.0117V27.5V28H14H40H40.5V27.5V23.99C40.5 21.2627 38.9151 18.7405 36.3897 17.6181ZM12.546 19.3035L12.9166 18.6735L12.195 18.5564C11.3759 18.4236 10.5463 18.3333 9.66667 18.3333C7.45074 18.3333 5.34671 18.8034 3.44488 19.6311C1.66076 20.4026 0.5 22.1415 0.5 24.0983V27.5V28H1H10.75H11.25V27.5V24.0117C11.25 22.3074 11.7219 20.7044 12.546 19.3035ZM41.805 18.5564L41.0834 18.6735L41.454 19.3035C42.2781 20.7044 42.75 22.3074 42.75 24.0117V27.5V28H43.25H53H53.5V27.5V24.0983C53.5 22.1415 52.3392 20.4026 50.5551 19.6311C48.6533 18.8034 46.5493 18.3333 44.3333 18.3333C43.4537 18.3333 42.6241 18.4236 41.805 18.5564ZM9.66667 17.1667C12.3261 17.1667 14.5 14.9928 14.5 12.3333C14.5 9.67386 12.3261 7.5 9.66667 7.5C7.00719 7.5 4.83333 9.67386 4.83333 12.3333C4.83333 14.9928 7.00719 17.1667 9.66667 17.1667ZM44.3333 17.1667C46.9928 17.1667 49.1667 14.9928 49.1667 12.3333C49.1667 9.67386 46.9928 7.5 44.3333 7.5C41.6739 7.5 39.5 9.67386 39.5 12.3333C39.5 14.9928 41.6739 17.1667 44.3333 17.1667ZM34 8C34 4.12719 30.8728 1 27 1C23.1272 1 20 4.12719 20 8C20 11.8728 23.1272 15 27 15C30.8728 15 34 11.8728 34 8Z" fill="#EEEEEE" stroke="black"/>
</svg>
