<svg width="19" height="20" viewBox="0 0 19 20" fill="none" xmlns="http://www.w3.org/2000/svg">
<path d="M13.8124 12.1104L13.6658 11.9631H13.458H13.202C14.2018 10.5298 14.6811 8.70849 14.3598 6.78966L14.3596 6.78891C13.8545 3.80091 11.3672 1.42009 8.35668 1.05419C3.81844 0.496295 -0.00351322 4.31811 0.554144 8.85632C0.919891 11.867 3.30079 14.3545 6.28891 14.8596L6.28966 14.8598C8.20849 15.1811 10.0298 14.7018 11.4631 13.702V13.958V14.1651L11.6096 14.3116L15.8451 18.5471C16.449 19.151 17.4333 19.151 18.0371 18.5471C18.641 17.9432 18.641 16.9589 18.0371 16.3551L13.8124 12.1104ZM7.47847 11.9631C5.2731 11.9631 3.49381 10.1838 3.49381 7.97847C3.49381 5.7731 5.2731 3.99381 7.47847 3.99381C9.68384 3.99381 11.4631 5.7731 11.4631 7.97847C11.4631 10.1838 9.68384 11.9631 7.47847 11.9631Z" fill="#EEEEEE" stroke="black"/>
</svg>
