<svg width="27" height="28" viewBox="0 0 27 28" fill="none" xmlns="http://www.w3.org/2000/svg">
<path d="M23.327 15.254L23.2874 15.5423L23.5186 15.7191L26.4245 17.9409L26.4306 17.9456L26.4369 17.9501C26.4735 17.9764 26.4879 18.0047 26.493 18.03C26.4982 18.0557 26.4975 18.0979 26.4679 18.1528L23.6962 22.8148L23.696 22.8147L23.6898 22.8258C23.6468 22.9024 23.553 22.9457 23.4455 22.9103L19.9997 21.564L19.7396 21.4623L19.5166 21.6305C18.8416 22.1397 18.1 22.5668 17.2917 22.8866L17.0226 22.9931L16.9809 23.2795L16.4605 26.8513L16.4604 26.8513L16.4593 26.8597C16.4504 26.9289 16.3907 27 16.2758 27H10.7242C10.6332 27 10.5515 26.9465 10.5222 26.8312L10.0046 23.2795L9.9629 22.9931L9.69381 22.8866C8.888 22.5678 8.15947 22.141 7.46504 21.6276L7.24302 21.4635L6.98585 21.564L3.55128 22.9059C3.49111 22.9218 3.43419 22.9184 3.39105 22.9039C3.34899 22.8898 3.31788 22.8653 3.29572 22.8258L3.29586 22.8257L3.28938 22.8148L0.517444 18.1525C0.480479 18.083 0.5051 17.9833 0.559005 17.9425L0.55914 17.9424L3.49392 15.7205L3.73627 15.537L3.68494 15.2374C3.6187 14.8509 3.59092 14.4163 3.59092 14C3.59092 13.6042 3.64382 13.1713 3.71385 12.7626L3.76519 12.463L3.52284 12.2795L0.588054 10.0576L0.57804 10.05L0.567658 10.043C0.534321 10.0203 0.521916 9.99568 0.517319 9.97137C0.512086 9.94369 0.515063 9.90098 0.543613 9.85215C0.543701 9.852 0.54379 9.85185 0.543878 9.8517L3.30443 5.18422L3.30454 5.18429L3.31018 5.17424C3.35318 5.09755 3.44697 5.05432 3.55454 5.08973L7.00031 6.43603L7.25654 6.53614L7.47825 6.37329C8.16034 5.8723 8.90363 5.43174 9.70827 5.11337L9.97736 5.00689L10.0191 4.72053L10.5384 1.15643C10.5574 1.05606 10.6281 1 10.7242 1H16.2758C16.3844 1 16.459 1.06817 16.4761 1.1567L16.9954 4.72053L17.0371 5.00689L17.3062 5.11337C18.112 5.43221 18.8405 5.85901 19.535 6.37238L19.757 6.53651L20.0141 6.43603L23.4487 5.0941C23.5089 5.07824 23.5658 5.08157 23.609 5.09606C23.651 5.11018 23.6821 5.13473 23.7043 5.17424L23.7041 5.17432L23.7106 5.18521L26.4826 9.84756C26.5195 9.917 26.4949 10.0167 26.441 10.0575L26.4409 10.0576L23.5061 12.2795L23.2637 12.463L23.3151 12.7626C23.3814 13.1495 23.4091 13.5701 23.4091 14C23.4091 14.443 23.3815 14.8562 23.327 15.254ZM7.79546 14C7.79546 17.0735 10.3745 19.5625 13.5 19.5625C16.6255 19.5625 19.2045 17.0735 19.2045 14C19.2045 10.9265 16.6255 8.4375 13.5 8.4375C10.3745 8.4375 7.79546 10.9265 7.79546 14Z" fill="#D6DAFF" stroke="black"/>
</svg>
